PathFileType	4	(X/Y/Z)	C:\Users\Basilio\Documents\Thesis Gigler\squatting_fais\c3dfiles\019\SJ_pre5\markers_experimental.trc
DataRate	CameraRate	NumFrames	NumMarkers	Units	OrigDataRate	OrigDataStartFrame	OrigNumFrames
200.000000	200.000000	4	59	mm	200.000000	325	1303
Frame#	Time	FHD			LBHD			RBHD			C7			T10			CLAV			LSHO			LUUPA			LMUPA			LDUPA			LLEP			LMEP			LRAD			LUL			LRFIN			RSHO			RUPA1			RMUPA			RDUPA			RLEP			RMEP			RRAD			RUL			RUFIN			LASI			USACR			LSACR			RSACR			LTHI1			LTHI2			LTHI3			LTHI4			LLFC			LTIB1			LTIB2			LTIB3			LTIB4			LLMAL			LMMAL			LHEE			LMT1			LMT2			LMT5			RTHI			RTHI2			RTHI3			RTHI4			RLFC			RTIB1			RTIB2			RTIB3			RTIB4			RLMAL			RMMAL			RHEE			RMT1			RMT2			RMT5			RASI			
		X1	Y1	Z1	X2	Y2	Z2	X3	Y3	Z3	X4	Y4	Z4	X5	Y5	Z5	X6	Y6	Z6	X7	Y7	Z7	X8	Y8	Z8	X9	Y9	Z9	X10	Y10	Z10	X11	Y11	Z11	X12	Y12	Z12	X13	Y13	Z13	X14	Y14	Z14	X15	Y15	Z15	X16	Y16	Z16	X17	Y17	Z17	X18	Y18	Z18	X19	Y19	Z19	X20	Y20	Z20	X21	Y21	Z21	X22	Y22	Z22	X23	Y23	Z23	X24	Y24	Z24	X25	Y25	Z25	X26	Y26	Z26	X27	Y27	Z27	X28	Y28	Z28	X29	Y29	Z29	X30	Y30	Z30	X31	Y31	Z31	X32	Y32	Z32	X33	Y33	Z33	X34	Y34	Z34	X35	Y35	Z35	X36	Y36	Z36	X37	Y37	Z37	X38	Y38	Z38	X39	Y39	Z39	X40	Y40	Z40	X41	Y41	Z41	X42	Y42	Z42	X43	Y43	Z43	X44	Y44	Z44	X45	Y45	Z45	X46	Y46	Z46	X47	Y47	Z47	X48	Y48	Z48	X49	Y49	Z49	X50	Y50	Z50	X51	Y51	Z51	X52	Y52	Z52	X53	Y53	Z53	X54	Y54	Z54	X55	Y55	Z55	X56	Y56	Z56	X57	Y57	Z57	X58	Y58	Z58	X59	Y59	Z59	

326	1.625	130.769775390625	855.8084716796877	-869.2595214843752	9.596509933471681	908.8621215820315	-1016.409362792969	3.344130516052247	910.023376464844	-876.4996337890627	-117.5579986572266	818.4212646484377	-941.9916992187502	-380.3963012695313	706.6691894531251	-943.4175415039065	nan	nan	nan	-71.96566772460939	762.3232421875001	-1082.851440429688	-190.3998260498047	725.5296630859376	-1199.023315429688	-227.2545318603516	695.6863403320314	-1183.858764648438	-247.1410522460938	718.2180786132814	-1234.863403320313	-307.9151000976563	739.5871582031251	-1290.658569335938	-349.4483032226563	792.6917724609377	-1262.385498046875	-494.0397338867189	607.2640380859376	-1177.468872070313	-489.2168273925782	573.7816772460939	-1238.02978515625	-462.0084838867189	574.8612060546876	-1145.46728515625	-64.18965148925783	674.9664306640626	-939.6484985351565	-190.0119781494141	785.2154541015627	-668.2554931640626	-205.2738952636719	734.5203857421876	-658.8673706054689	-240.1593933105469	768.2783203125002	-620.9110717773439	-307.6894531250001	734.7454223632814	-583.6044311523439	-343.9474487304688	789.3116455078127	-609.1831665039064	-489.1658325195314	606.5128173828126	-719.4609985351564	-474.7735595703126	555.7050781250001	-675.2361450195314	-463.2863769531251	575.5372924804689	-767.3281250000001	nan	nan	nan	-518.2198486328126	635.4602661132814	-950.0466918945315	-546.4501342773439	617.3562011718751	-976.1304321289065	-546.2565307617189	615.5487060546876	-921.6167602539065	-405.0667419433595	441.4950561523439	-1176.749145507813	-326.7552185058594	474.2889709472657	-1191.524047851563	-315.8988342285157	516.0371704101564	-1169.423217773438	-274.5377807617188	442.6266479492189	-1200.42041015625	-191.7459259033203	423.9321899414064	-1196.7763671875	-157.1951141357422	293.3591613769532	-1166.911010742188	-230.276107788086	271.0639953613282	-1212.786376953125	-195.5070343017579	257.3809814453126	-1190.764038085938	-228.4290771484376	187.6815032958985	-1150.984619140625	-345.3712463378907	95.21839141845705	-1169.214965820313	-316.7045288085938	96.366081237793	-1086.442993164063	-399.5260314941407	42.91997146606446	-1108.3515625	-186.9827880859375	56.55031585693361	-1127.566772460938	-194.2790679931641	59.40916442871095	-1170.360473632813	-243.1769561767579	36.5769157409668	-1217.933715820313	-476.5694580078126	475.8568725585939	-739.8801879882814	-421.6725158691407	501.4009094238282	-738.2905883789064	-414.0983276367189	521.5509033203126	-765.6004028320314	-351.1535644531251	477.6220092773439	-703.1306152343751	-208.1216583251954	427.8956298828126	-684.3034057617189	-186.0815124511719	255.7200469970704	-729.7385864257814	-277.7349853515626	209.9053192138672	-689.4835815429689	-240.2642364501954	190.7152404785157	-716.1132812500001	-254.1386413574219	151.840805053711	-755.1273803710939	-352.1166076660157	97.54119873046878	-725.0921020507814	-314.8890380859376	93.14825439453126	-797.814636230469	-399.4515686035157	43.58353805541993	-788.5972290039065	-196.809555053711	53.71120834350587	-737.0404663085939	-208.9815673828126	61.91616058349611	-693.0966186523439	-262.8426818847657	42.07664108276368	-655.4821166992189	-575.1277465820314	585.1396484375001	-797.4936523437502	
327	1.63	130.7169799804688	855.7083129882815	-869.4954833984377	9.587250709533693	908.8684082031252	-1016.374938964844	3.348297834396363	910.0100097656252	-876.4975585937502	-117.6545867919922	818.5361938476565	-942.0040283203127	-380.6642150878907	706.7094116210939	-943.4592285156252	nan	nan	nan	-72.22499084472658	762.4505615234376	-1082.836181640625	-190.3453216552735	725.7015991210939	-1199.040771484375	-227.2468414306641	695.7487182617189	-1183.867431640625	-247.1279907226563	718.3358154296876	-1234.861938476563	-307.9393615722657	739.7036132812501	-1290.85107421875	-349.5551147460938	792.7775878906252	-1262.482299804688	-493.9983520507814	607.2523193359376	-1177.576293945313	-489.0548706054689	573.7142333984376	-1238.1796875	-461.9861145019532	574.8245849609376	-1145.623657226563	-64.31507110595705	674.9912719726564	-939.698913574219	-189.6587829589844	784.9655761718752	-668.0717773437501	-205.0952606201172	734.2067260742189	-659.0711669921876	-239.7910308837891	768.0297851562502	-620.7762451171876	-307.3623657226563	734.4364624023439	-583.4133300781251	-343.5195617675782	789.0639648437502	-608.7980957031251	-489.0107421875001	606.5097045898439	-719.2456054687501	-474.5133056640626	555.6134643554689	-675.1752319335939	-463.2656555175782	575.4629516601564	-767.1320190429689	nan	nan	nan	-518.3006591796876	635.4840087890626	-950.0989990234377	-546.5216064453126	617.3647460937501	-976.227722167969	-546.3637695312501	615.5972290039064	-921.7400512695315	-405.0887451171876	441.5032043457032	-1176.748657226563	-326.7446899414063	474.287078857422	-1191.475952148438	-315.9402465820313	516.0224609375001	-1169.336181640625	-274.5715637207032	442.6714172363282	-1200.403076171875	-191.7908935546875	423.9512939453126	-1196.694580078125	-157.239242553711	293.3565063476563	-1166.85888671875	-230.2158660888672	271.0233154296876	-1212.739868164063	-195.5206298828126	257.4362792968751	-1190.664916992188	-228.4930725097657	187.696517944336	-1150.949462890625	-345.3135681152344	95.19344329833986	-1169.145874023438	-316.7004089355469	96.36282348632815	-1086.440307617188	-399.5301513671876	42.92262268066407	-1108.394653320313	-186.970199584961	56.54206466674806	-1127.521484375	-194.2592773437501	59.44148254394533	-1170.370971679688	-242.847396850586	36.60818099975587	-1217.449951171875	-476.7854614257814	475.9641418457032	-739.9213867187501	-421.728240966797	501.3298645019532	-738.3273315429689	-414.2189331054689	521.6199951171876	-765.6622314453126	-351.2705993652344	477.6246643066407	-703.1546020507814	-208.2699737548829	427.9389953613282	-684.3433837890626	-186.1853790283203	255.7633666992188	-729.5982055664064	-277.7180175781251	209.9179840087891	-689.4395141601564	-240.4423828125001	190.7711486816407	-716.0747070312501	-254.1617279052735	151.9757232666016	-754.6659545898439	-352.0961608886719	97.55552673339847	-725.0867309570314	-315.2391052246094	93.50673675537111	-798.166442871094	-399.7657470703126	43.82711410522462	-788.4949340820315	-196.7979125976563	53.75587844848634	-736.9974365234376	-208.9901733398438	61.98307037353517	-693.0955200195314	-262.7651977539063	42.0483627319336	-655.4744873046876	-574.8084716796876	585.3069458007814	-797.6807250976565	
328	1.635	130.524642944336	855.698425292969	-869.5483398437502	9.696619987487795	908.824645996094	-1016.431457519531	3.236634731292725	910.027282714844	-876.5710449218752	-117.7394485473633	818.5537719726565	-941.984069824219	-380.7349243164063	706.7207031250001	-943.5198364257815	nan	nan	nan	-72.26185607910158	762.6450805664064	-1082.75341796875	-190.343505859375	725.8383178710939	-1199.081420898438	-227.3275604248047	695.9120483398439	-1183.94482421875	-247.1904449462891	718.4887695312501	-1234.895385742188	-307.7536926269532	739.7026367187501	-1290.91357421875	-349.5928955078126	792.8460693359377	-1262.58447265625	-493.9434509277345	607.2307739257814	-1177.736938476563	-488.9625549316407	573.7178955078126	-1238.322021484375	-461.8362731933595	574.8074340820314	-1145.712158203125	-64.34246826171876	675.1046752929689	-939.740661621094	-189.3186645507813	784.8510742187502	-667.9009399414064	-204.9060668945313	733.8531494140626	-659.3825073242189	-239.4597625732422	767.7755126953126	-620.7133789062501	-307.0910644531251	734.2423706054689	-583.2526245117189	-343.2556762695313	788.8150024414065	-608.6002197265626	-488.737518310547	606.3874511718751	-719.0158691406251	-474.2380371093751	555.4158935546876	-674.9089965820314	-463.1411132812501	575.5467529296876	-767.0737915039064	nan	nan	nan	-518.4006347656251	635.4728393554689	-950.1635742187502	-546.5715942382814	617.3294677734376	-976.2930908203127	-546.4711303710939	615.6198120117189	-921.8320312500002	-405.0783691406251	441.4922485351564	-1176.746215820313	-326.7699279785157	474.3008422851564	-1191.445922851563	-315.8850402832032	516.0258789062501	-1169.248046875	-274.5227661132813	442.6731567382814	-1200.3095703125	-191.8562164306641	423.965301513672	-1196.605712890625	-157.2399597167969	293.4389648437501	-1166.691650390625	-230.226303100586	271.0658264160157	-1212.603881835938	-195.5449218750001	257.4914550781251	-1190.601318359375	-228.390365600586	187.71826171875	-1150.874633789063	-345.4011535644532	95.24568176269533	-1169.131591796875	-316.6536254882813	96.33431243896487	-1086.406127929688	-399.5296630859376	42.91489791870118	-1108.399291992188	-186.9732818603516	56.55117416381837	-1127.55419921875	-194.2453765869141	59.45922851562501	-1170.360961914063	-242.8227691650391	36.60033035278321	-1217.451049804688	-476.8508911132814	475.9837951660157	-739.9843750000001	-421.8944396972657	501.5768127441407	-738.4590454101564	-414.3316040039064	521.6237182617189	-765.6463012695314	-351.4347839355469	477.6943359375001	-703.1917114257814	-208.4283142089844	428.0047912597657	-684.3734130859376	-186.1866760253907	255.8025665283204	-729.7982177734376	-277.8119812011719	209.9781494140626	-689.4937744140626	-240.4201660156251	190.7931365966797	-716.1463623046876	-254.2544860839844	151.8819580078125	-755.2221069335939	-352.1185607910157	97.52814483642581	-725.0846557617189	-315.2592468261719	93.5095901489258	-798.1734619140627	-399.8090209960939	43.84129333496094	-788.4824829101565	-196.7973785400391	53.7337989807129	-737.0017089843751	-209.019760131836	61.99934387207033	-693.0957031250001	-262.8201904296876	42.09080123901368	-655.4697875976564	-574.9064941406251	585.4291381835939	-797.7705078125002	
329	1.64	130.5387878417969	855.6861572265627	-869.3477172851565	9.68670177459717	908.830993652344	-1016.500183105469	3.112674474716187	910.0227661132815	-876.6538085937502	-117.8405380249024	818.6478271484377	-942.038269042969	-380.8038940429688	706.7551879882814	-943.5683593750002	nan	nan	nan	-72.29861450195314	762.7852172851564	-1082.78466796875	-190.4335632324219	725.9282226562501	-1199.11328125	-227.2113952636719	696.0554809570314	-1183.996337890625	-247.0628204345704	718.6684570312501	-1235.003540039063	-307.8637695312501	739.8672485351564	-1291.003173828125	-349.6020202636719	792.9407958984377	-1262.64990234375	-493.8511352539064	607.2539672851564	-1177.833374023438	-488.8930053710939	573.7363281250001	-1238.427001953125	-461.808074951172	574.8831176757814	-1145.830444335938	-64.49877166748048	675.1806030273439	-939.741638183594	-189.0768432617188	784.7271118164065	-667.8150634765626	-204.6351165771485	733.6762084960939	-659.3876342773439	-239.1907501220704	767.5850219726564	-620.5228881835939	-306.7016601562501	733.9282226562501	-583.0310058593751	-342.9155273437501	788.5864868164065	-608.2719726562501	-488.5948486328126	606.3092651367189	-718.7373046875001	-474.012176513672	555.3469848632814	-674.8432006835939	-462.4171142578126	575.6587524414064	-766.5383300781251	nan	nan	nan	-518.6014404296876	635.5155639648439	-950.228942871094	-546.7204589843751	617.3814697265626	-976.3616333007815	-546.5608520507814	615.6198730468751	-921.9319458007815	-405.1411437988282	441.536590576172	-1176.759643554688	-326.7488098144532	474.2989807128907	-1191.417236328125	-315.9809570312501	516.0399169921876	-1169.272094726563	-274.5192871093751	442.7035522460939	-1200.262573242188	-191.8344421386719	424.0320129394532	-1196.515869140625	-157.3166198730469	293.3949279785157	-1166.736572265625	-230.2137145996094	271.1092834472657	-1212.58251953125	-195.5216369628907	257.4936523437501	-1190.540893554688	-228.4889068603516	187.746322631836	-1150.835205078125	-345.4050292968751	95.24948883056642	-1169.135375976563	-316.6805419921876	96.339469909668	-1086.398803710938	-399.5293273925782	42.91911697387696	-1108.3525390625	-186.9666900634766	56.5343360900879	-1127.54345703125	-194.2995147705079	59.44573974609376	-1170.310180664063	-243.2020874023438	36.63626098632813	-1217.844482421875	-477.0390930175782	476.0105590820314	-740.1090698242189	-422.052703857422	501.5979309082032	-738.4978637695314	-414.4610595703126	521.6281127929689	-765.7185668945314	-351.5153808593751	477.7163696289064	-703.2451171875001	-208.6392669677735	428.127166748047	-684.4057617187501	-186.2324523925782	255.755355834961	-729.5382690429689	-277.8118286132813	209.9765625000001	-689.4902343750001	-240.5428314208985	190.7847137451172	-716.1362915039064	-254.2332153320313	152.0205688476563	-754.6926269531251	-352.1637878417969	97.51558685302737	-725.0748291015626	-315.2445373535157	93.51805114746095	-798.1676025390627	-399.7439880371095	43.77951431274415	-788.520202636719	-196.8198852539063	53.73818969726564	-737.0505981445314	-208.8718719482422	61.95087814331056	-693.1845703125001	-262.8657226562501	42.12363433837891	-655.4588623046876	-574.6955566406251	585.2673339843751	-797.8673095703127	
